<svg width="48" height="48" viewBox="0 0 48 48" fill="none" xmlns="http://www.w3.org/2000/svg">
<rect width="48" height="48" rx="24" fill="#AFC318"/>
<path d="M40.6875 25.5703L25.1297 7.64062C24.9891 7.47838 24.8152 7.34827 24.6199 7.25909C24.4246 7.16992 24.2124 7.12376 23.9977 7.12376C23.783 7.12376 23.5708 7.16992 23.3754 7.25909C23.1801 7.34827 23.0063 7.47838 22.8656 7.64062L7.31251 25.5703C7.26552 25.6244 7.23504 25.6908 7.22472 25.7616C7.2144 25.8325 7.22468 25.9049 7.25431 25.9701C7.28395 26.0353 7.3317 26.0906 7.39189 26.1294C7.45207 26.1682 7.52214 26.1889 7.59376 26.1891H11.3906C11.6063 26.1891 11.8125 26.0953 11.9578 25.9312L22.2188 14.1047V40.5C22.2188 40.7062 22.3875 40.875 22.5938 40.875H25.4063C25.6125 40.875 25.7813 40.7062 25.7813 40.5V14.1047L36.0422 25.9312C36.1828 26.0953 36.3891 26.1891 36.6094 26.1891H40.4063C40.725 26.1891 40.8985 25.8141 40.6875 25.5703Z" fill="white"/>
</svg>
