<svg width="27" height="18" viewBox="0 0 27 18" fill="none" xmlns="http://www.w3.org/2000/svg">
<path d="M1.11312 11.3688L6.60449 1.548C6.69488 1.38398 6.83467 1.24578 7.00814 1.14896C7.18161 1.05214 7.38186 1.00055 7.58635 1H19.4126C19.616 1.00037 19.8153 1.05125 19.9883 1.14697C20.1613 1.24269 20.3011 1.37948 20.3922 1.54211L25.8836 11.3629C25.9673 11.5122 26.007 11.6781 25.999 11.8449C25.991 12.0117 25.9356 12.174 25.838 12.3163C25.7403 12.4586 25.6038 12.5764 25.4411 12.6584C25.2784 12.7404 25.0951 12.7839 24.9083 12.7849H6.90981V15.7312C6.90981 15.9916 6.7941 16.2414 6.58814 16.4256C6.38217 16.6098 6.10282 16.7133 5.81154 16.7133C5.52026 16.7133 5.24091 16.6098 5.03494 16.4256C4.82897 16.2414 4.71326 15.9916 4.71326 15.7312V12.7849H2.09058C1.90457 12.7838 1.72194 12.7404 1.55981 12.6588C1.39768 12.5773 1.26138 12.4602 1.16368 12.3187C1.06598 12.1771 1.01009 12.0157 1.00124 11.8496C0.9924 11.6834 1.0309 11.518 1.11312 11.3688Z" stroke="white"/>
</svg>
