<svg width="120" height="29" viewBox="0 0 120 29" fill="none" xmlns="http://www.w3.org/2000/svg">
<path d="M1.11312 11.3688L6.60449 1.548C6.69488 1.38398 6.83467 1.24578 7.00814 1.14896C7.18161 1.05214 7.38186 1.00055 7.58635 1H19.4126C19.616 1.00037 19.8153 1.05125 19.9883 1.14697C20.1613 1.24269 20.3011 1.37948 20.3922 1.54211L25.8836 11.3629C25.9673 11.5122 26.007 11.6781 25.999 11.8449C25.991 12.0117 25.9356 12.174 25.838 12.3163C25.7403 12.4586 25.6038 12.5764 25.4411 12.6584C25.2784 12.7404 25.0951 12.7839 24.9083 12.7849H6.90981V15.7312C6.90981 15.9916 6.7941 16.2414 6.58814 16.4256C6.38217 16.6098 6.10282 16.7133 5.81154 16.7133C5.52026 16.7133 5.24091 16.6098 5.03494 16.4256C4.82897 16.2414 4.71326 15.9916 4.71326 15.7312V12.7849H2.09058C1.90457 12.7838 1.72194 12.7404 1.55981 12.6588C1.39768 12.5773 1.26138 12.4602 1.16368 12.3187C1.06598 12.1771 1.01009 12.0157 1.00124 11.8496C0.9924 11.6834 1.0309 11.518 1.11312 11.3688Z" stroke="white"/>
<path d="M18.72 25.26H18.62C18.5267 25.5267 18.4 25.78 18.24 26.02C18.0933 26.2467 17.9 26.4533 17.66 26.64C17.4333 26.8267 17.1533 26.9733 16.82 27.08C16.5 27.1867 16.1267 27.24 15.7 27.24C14.62 27.24 13.7933 26.8867 13.22 26.18C12.6467 25.4733 12.36 24.4667 12.36 23.16V16.56H14.92V22.9C14.92 23.62 15.06 24.1733 15.34 24.56C15.62 24.9333 16.0667 25.12 16.68 25.12C16.9333 25.12 17.18 25.0867 17.42 25.02C17.6733 24.9533 17.8933 24.8533 18.08 24.72C18.2667 24.5733 18.42 24.4 18.54 24.2C18.66 23.9867 18.72 23.74 18.72 23.46V16.56H21.28V27H18.72V25.26ZM24.2378 27V16.56H26.7978V18.3H26.8978C27.0978 17.7533 27.4178 17.2867 27.8578 16.9C28.2978 16.5133 28.9111 16.32 29.6978 16.32C30.4178 16.32 31.0378 16.4933 31.5578 16.84C32.0778 17.1867 32.4645 17.7133 32.7178 18.42H32.7578C32.9445 17.8333 33.3111 17.34 33.8578 16.94C34.4178 16.5267 35.1178 16.32 35.9578 16.32C36.9845 16.32 37.7711 16.6733 38.3178 17.38C38.8778 18.0867 39.1578 19.0933 39.1578 20.4V27H36.5978V20.66C36.5978 19.1667 36.0378 18.42 34.9178 18.42C34.6645 18.42 34.4178 18.46 34.1778 18.54C33.9511 18.6067 33.7445 18.7133 33.5578 18.86C33.3845 18.9933 33.2445 19.1667 33.1378 19.38C33.0311 19.58 32.9778 19.82 32.9778 20.1V27H30.4178V20.66C30.4178 19.1667 29.8578 18.42 28.7378 18.42C28.4978 18.42 28.2578 18.46 28.0178 18.54C27.7911 18.6067 27.5845 18.7133 27.3978 18.86C27.2245 18.9933 27.0778 19.1667 26.9578 19.38C26.8511 19.58 26.7978 19.82 26.7978 20.1V27H24.2378ZM49.6717 27C49.1117 27 48.6651 26.84 48.3317 26.52C48.0117 26.1867 47.8117 25.7467 47.7317 25.2H47.6117C47.4384 25.88 47.0851 26.3933 46.5517 26.74C46.0184 27.0733 45.3584 27.24 44.5717 27.24C43.5051 27.24 42.6851 26.96 42.1117 26.4C41.5384 25.84 41.2517 25.0933 41.2517 24.16C41.2517 23.08 41.6384 22.28 42.4117 21.76C43.1851 21.2267 44.2851 20.96 45.7117 20.96H47.4917V20.2C47.4917 19.6133 47.3384 19.16 47.0317 18.84C46.7251 18.52 46.2317 18.36 45.5517 18.36C44.9517 18.36 44.4651 18.4933 44.0917 18.76C43.7317 19.0133 43.4251 19.32 43.1717 19.68L41.6517 18.32C42.0384 17.72 42.5517 17.24 43.1917 16.88C43.8317 16.5067 44.6784 16.32 45.7317 16.32C47.1451 16.32 48.2184 16.64 48.9517 17.28C49.6851 17.92 50.0517 18.84 50.0517 20.04V24.96H51.0917V27H49.6717ZM45.4317 25.38C46.0051 25.38 46.4917 25.2533 46.8917 25C47.2917 24.7467 47.4917 24.3733 47.4917 23.88V22.5H45.8517C44.5184 22.5 43.8517 22.9267 43.8517 23.78V24.12C43.8517 24.5467 43.9851 24.8667 44.2517 25.08C44.5317 25.28 44.9251 25.38 45.4317 25.38ZM53.1636 12.2H55.7236V18.3H55.8236C56.0369 17.74 56.3703 17.2733 56.8236 16.9C57.2903 16.5133 57.9303 16.32 58.7436 16.32C59.8236 16.32 60.6503 16.6733 61.2236 17.38C61.7969 18.0867 62.0836 19.0933 62.0836 20.4V27H59.5236V20.66C59.5236 19.9133 59.3903 19.3533 59.1236 18.98C58.8569 18.6067 58.4169 18.42 57.8036 18.42C57.5369 18.42 57.2769 18.46 57.0236 18.54C56.7836 18.6067 56.5636 18.7133 56.3636 18.86C56.1769 18.9933 56.0236 19.1667 55.9036 19.38C55.7836 19.58 55.7236 19.82 55.7236 20.1V27H53.1636V12.2ZM65.3014 27V16.76H66.4414V18.38H66.5014C66.6081 18.1267 66.7414 17.8933 66.9014 17.68C67.0614 17.4533 67.2547 17.2533 67.4814 17.08C67.7081 16.9067 67.9747 16.7733 68.2814 16.68C68.6014 16.5733 68.9747 16.52 69.4014 16.52C70.1347 16.52 70.7814 16.6933 71.3414 17.04C71.9014 17.3867 72.3081 17.9333 72.5614 18.68H72.6214C72.8081 18.08 73.1614 17.5733 73.6814 17.16C74.2147 16.7333 74.9347 16.52 75.8414 16.52C76.9347 16.52 77.7747 16.86 78.3614 17.54C78.9481 18.2067 79.2414 19.1667 79.2414 20.42V27H78.1014V20.62C78.1014 18.5667 77.2414 17.54 75.5214 17.54C75.1614 17.54 74.8214 17.5867 74.5014 17.68C74.1814 17.7733 73.8947 17.92 73.6414 18.12C73.4014 18.3067 73.2081 18.5467 73.0614 18.84C72.9147 19.12 72.8414 19.4467 72.8414 19.82V27H71.7014V20.62C71.7014 18.5667 70.8481 17.54 69.1414 17.54C68.7947 17.54 68.4547 17.5867 68.1214 17.68C67.8014 17.7733 67.5147 17.9133 67.2614 18.1C67.0081 18.2867 66.8081 18.5267 66.6614 18.82C66.5147 19.1 66.4414 19.4267 66.4414 19.8V27H65.3014ZM86.4809 27.24C85.8009 27.24 85.1809 27.12 84.6209 26.88C84.0743 26.64 83.6009 26.2933 83.2009 25.84C82.8143 25.3733 82.5143 24.8067 82.3009 24.14C82.1009 23.4733 82.0009 22.72 82.0009 21.88C82.0009 21.04 82.1009 20.2933 82.3009 19.64C82.5143 18.9733 82.8143 18.4133 83.2009 17.96C83.6009 17.4933 84.0743 17.14 84.6209 16.9C85.1676 16.6467 85.7809 16.52 86.4609 16.52C87.1143 16.52 87.7076 16.6467 88.2409 16.9C88.7743 17.14 89.2276 17.48 89.6009 17.92C89.9743 18.36 90.2609 18.8933 90.4609 19.52C90.6743 20.1333 90.7809 20.8133 90.7809 21.56V22.1H83.2009V22.6C83.2009 23.1333 83.2743 23.6267 83.4209 24.08C83.5809 24.52 83.8009 24.9 84.0809 25.22C84.3743 25.54 84.7276 25.7933 85.1409 25.98C85.5543 26.1533 86.0209 26.24 86.5409 26.24C88.0343 26.24 89.0676 25.5533 89.6409 24.18L90.4809 24.74C90.1609 25.5 89.6543 26.1067 88.9609 26.56C88.2809 27.0133 87.4543 27.24 86.4809 27.24ZM86.4609 17.48C85.9676 17.48 85.5209 17.5733 85.1209 17.76C84.7209 17.9333 84.3743 18.18 84.0809 18.5C83.8009 18.82 83.5809 19.2067 83.4209 19.66C83.2743 20.1 83.2009 20.5867 83.2009 21.12V21.22H89.5409V21.06C89.5409 20.5267 89.4676 20.04 89.3209 19.6C89.1743 19.1467 88.9609 18.7667 88.6809 18.46C88.4143 18.1533 88.0876 17.9133 87.7009 17.74C87.3276 17.5667 86.9143 17.48 86.4609 17.48ZM93.6803 12.2H94.8203V18.4H94.8803C95.1336 17.8267 95.5203 17.3733 96.0403 17.04C96.5603 16.6933 97.2136 16.52 98.0003 16.52C99.3203 16.52 100.354 16.9867 101.1 17.92C101.847 18.8533 102.22 20.1733 102.22 21.88C102.22 23.5867 101.847 24.9067 101.1 25.84C100.354 26.7733 99.3203 27.24 98.0003 27.24C97.2136 27.24 96.567 27.0733 96.0603 26.74C95.5536 26.3933 95.1603 25.9333 94.8803 25.36H94.8203V27H93.6803V12.2ZM97.7403 26.22C98.767 26.22 99.567 25.8933 100.14 25.24C100.714 24.5867 101 23.7067 101 22.6V21.16C101 20.0533 100.714 19.1733 100.14 18.52C99.567 17.8667 98.767 17.54 97.7403 17.54C97.3403 17.54 96.9603 17.6 96.6003 17.72C96.2536 17.8267 95.947 17.98 95.6803 18.18C95.4136 18.38 95.2003 18.62 95.0403 18.9C94.8936 19.18 94.8203 19.4867 94.8203 19.82V23.88C94.8203 24.24 94.8936 24.5667 95.0403 24.86C95.2003 25.14 95.4136 25.3867 95.6803 25.6C95.947 25.8 96.2536 25.9533 96.6003 26.06C96.9603 26.1667 97.3403 26.22 97.7403 26.22ZM108.825 27.24C108.145 27.24 107.525 27.12 106.965 26.88C106.418 26.64 105.945 26.2933 105.545 25.84C105.158 25.3733 104.858 24.8067 104.645 24.14C104.445 23.4733 104.345 22.72 104.345 21.88C104.345 21.04 104.445 20.2933 104.645 19.64C104.858 18.9733 105.158 18.4133 105.545 17.96C105.945 17.4933 106.418 17.14 106.965 16.9C107.511 16.6467 108.125 16.52 108.805 16.52C109.458 16.52 110.051 16.6467 110.585 16.9C111.118 17.14 111.571 17.48 111.945 17.92C112.318 18.36 112.605 18.8933 112.805 19.52C113.018 20.1333 113.125 20.8133 113.125 21.56V22.1H105.545V22.6C105.545 23.1333 105.618 23.6267 105.765 24.08C105.925 24.52 106.145 24.9 106.425 25.22C106.718 25.54 107.071 25.7933 107.485 25.98C107.898 26.1533 108.365 26.24 108.885 26.24C110.378 26.24 111.411 25.5533 111.985 24.18L112.825 24.74C112.505 25.5 111.998 26.1067 111.305 26.56C110.625 27.0133 109.798 27.24 108.825 27.24ZM108.805 17.48C108.311 17.48 107.865 17.5733 107.465 17.76C107.065 17.9333 106.718 18.18 106.425 18.5C106.145 18.82 105.925 19.2067 105.765 19.66C105.618 20.1 105.545 20.5867 105.545 21.12V21.22H111.885V21.06C111.885 20.5267 111.811 20.04 111.665 19.6C111.518 19.1467 111.305 18.7667 111.025 18.46C110.758 18.1533 110.431 17.9133 110.045 17.74C109.671 17.5667 109.258 17.48 108.805 17.48ZM117.284 27C116.871 27 116.557 26.8867 116.344 26.66C116.131 26.4333 116.024 26.1333 116.024 25.76V12.2H117.164V26H118.744V27H117.284Z" fill="white"/>
</svg>
